<mxfile host="Electron" agent="Mozilla/5.0 (Windows NT 10.0; Win64; x64) AppleWebKit/537.36 (KHTML, like Gecko) draw.io/24.7.17 Chrome/128.0.6613.36 Electron/32.0.1 Safari/537.36" version="24.7.17">
  <diagram name="AWS Architecture" id="0">
    <mxGraphModel dx="864" dy="516" grid="1" gridSize="10" guides="1" tooltips="1" connect="1" arrows="1" fold="1" page="1" pageScale="1" pageWidth="850" pageHeight="1100" math="0" shadow="0">
      <root>
        <mxCell id="0" />
        <mxCell id="1" parent="0" />
        <mxCell id="2" value="Users" style="shape=rectangle;fillColor=#ffe599;rounded=1;strokeColor=#000000;" parent="1" vertex="1">
          <mxGeometry x="40" y="40" width="160" height="60" as="geometry" />
        </mxCell>
        <mxCell id="3" value="Route 53&#xa;(DNS + Health Checks)" style="shape=rectangle;fillColor=#ffe599;rounded=1;strokeColor=#000000;" parent="1" vertex="1">
          <mxGeometry x="250" y="40" width="160" height="60" as="geometry" />
        </mxCell>
        <mxCell id="4" value="CloudFront + WAF + Shield" style="shape=rectangle;fillColor=#ffe599;rounded=1;strokeColor=#000000;" parent="1" vertex="1">
          <mxGeometry x="460" y="40" width="160" height="60" as="geometry" />
        </mxCell>
        <mxCell id="5" value="ALB (Multi-AZ)" style="shape=rectangle;fillColor=#cfe2f3;rounded=1;strokeColor=#000000;" parent="1" vertex="1">
          <mxGeometry x="670" y="40" width="160" height="60" as="geometry" />
        </mxCell>
        <mxCell id="6" value="App Tier&#xa;(Auto Scaling EC2/ECS)" style="shape=rectangle;fillColor=#cfe2f3;rounded=1;strokeColor=#000000;" parent="1" vertex="1">
          <mxGeometry x="670" y="150" width="160" height="60" as="geometry" />
        </mxCell>
        <mxCell id="7" value="ElastiCache (Redis)" style="shape=rectangle;fillColor=#cfe2f3;rounded=1;strokeColor=#000000;" parent="1" vertex="1">
          <mxGeometry x="460" y="150" width="160" height="60" as="geometry" />
        </mxCell>
        <mxCell id="8" value="SQS (Async Jobs)" style="shape=rectangle;fillColor=#cfe2f3;rounded=1;strokeColor=#000000;" parent="1" vertex="1">
          <mxGeometry x="250" y="150" width="160" height="60" as="geometry" />
        </mxCell>
        <mxCell id="9" value="RDS/Aurora Multi-AZ" style="shape=rectangle;fillColor=#d9ead3;rounded=1;strokeColor=#000000;" parent="1" vertex="1">
          <mxGeometry x="670" y="260" width="160" height="60" as="geometry" />
        </mxCell>
        <mxCell id="10" value="S3 (Static Assets)" style="shape=rectangle;fillColor=#d9ead3;rounded=1;strokeColor=#000000;" parent="1" vertex="1">
          <mxGeometry x="40" y="260" width="160" height="60" as="geometry" />
        </mxCell>
        <mxCell id="11" value="Secrets Manager" style="shape=rectangle;fillColor=#f4cccc;rounded=1;strokeColor=#000000;" parent="1" vertex="1">
          <mxGeometry x="250" y="260" width="160" height="60" as="geometry" />
        </mxCell>
        <mxCell id="12" value="KMS" style="shape=rectangle;fillColor=#f4cccc;rounded=1;strokeColor=#000000;" parent="1" vertex="1">
          <mxGeometry x="460" y="260" width="160" height="60" as="geometry" />
        </mxCell>
        <mxCell id="13" value="CloudWatch + X-Ray" style="shape=rectangle;fillColor=#ddd9c3;rounded=1;strokeColor=#000000;" parent="1" vertex="1">
          <mxGeometry x="670" y="370" width="160" height="60" as="geometry" />
        </mxCell>
        <mxCell id="14" value="CloudTrail + GuardDuty" style="shape=rectangle;fillColor=#ddd9c3;rounded=1;strokeColor=#000000;" parent="1" vertex="1">
          <mxGeometry x="460" y="370" width="160" height="60" as="geometry" />
        </mxCell>
        <mxCell id="15" value="" style="endArrow=block;endFill=1;strokeColor=#000000;" parent="1" source="2" target="3" edge="1">
          <mxGeometry relative="1" as="geometry" />
        </mxCell>
        <mxCell id="16" value="" style="endArrow=block;endFill=1;strokeColor=#000000;" parent="1" source="3" target="4" edge="1">
          <mxGeometry relative="1" as="geometry" />
        </mxCell>
        <mxCell id="17" value="" style="endArrow=block;endFill=1;strokeColor=#000000;" parent="1" source="4" target="5" edge="1">
          <mxGeometry relative="1" as="geometry" />
        </mxCell>
        <mxCell id="18" value="" style="endArrow=block;endFill=1;strokeColor=#000000;" parent="1" source="5" target="6" edge="1">
          <mxGeometry relative="1" as="geometry" />
        </mxCell>
        <mxCell id="19" value="" style="endArrow=block;endFill=1;strokeColor=#000000;" parent="1" source="6" target="9" edge="1">
          <mxGeometry relative="1" as="geometry" />
        </mxCell>
        <mxCell id="20" value="" style="endArrow=block;endFill=1;strokeColor=#000000;" parent="1" source="6" target="7" edge="1">
          <mxGeometry relative="1" as="geometry" />
        </mxCell>
        <mxCell id="21" value="" style="endArrow=block;endFill=1;strokeColor=#000000;" parent="1" source="6" target="8" edge="1">
          <mxGeometry relative="1" as="geometry" />
        </mxCell>
        <mxCell id="22" value="" style="endArrow=block;endFill=1;strokeColor=#000000;" parent="1" source="7" target="9" edge="1">
          <mxGeometry relative="1" as="geometry" />
        </mxCell>
        <mxCell id="23" value="" style="endArrow=block;endFill=1;strokeColor=#000000;" parent="1" source="8" target="9" edge="1">
          <mxGeometry relative="1" as="geometry" />
        </mxCell>
        <mxCell id="24" value="" style="endArrow=block;endFill=1;strokeColor=#000000;" parent="1" source="10" target="4" edge="1">
          <mxGeometry relative="1" as="geometry" />
        </mxCell>
        <mxCell id="25" value="" style="endArrow=block;endFill=1;strokeColor=#000000;" parent="1" source="11" target="6" edge="1">
          <mxGeometry relative="1" as="geometry" />
        </mxCell>
        <mxCell id="26" value="" style="endArrow=block;endFill=1;strokeColor=#000000;" parent="1" source="12" target="6" edge="1">
          <mxGeometry relative="1" as="geometry" />
        </mxCell>
        <mxCell id="27" value="" style="endArrow=block;endFill=1;strokeColor=#000000;" parent="1" source="6" target="13" edge="1">
          <mxGeometry relative="1" as="geometry" />
        </mxCell>
        <mxCell id="28" value="" style="endArrow=block;endFill=1;strokeColor=#000000;" parent="1" source="6" target="14" edge="1">
          <mxGeometry relative="1" as="geometry" />
        </mxCell>
      </root>
    </mxGraphModel>
  </diagram>
</mxfile>
